<?xml version="1.0" standalone="no"?>
<!DOCTYPE svg PUBLIC "-//W3C//DTD SVG 20010904//EN"
 "http://www.w3.org/TR/2001/REC-SVG-20010904/DTD/svg10.dtd">
<svg version="1.0" xmlns="http://www.w3.org/2000/svg"
 width="768.000000pt" height="141.000000pt" viewBox="0 0 768.000000 141.000000"
 preserveAspectRatio="xMidYMid meet">

<g transform="translate(0.000000,141.000000) scale(0.100000,-0.100000)"
fill="#000000" stroke="none">
<path d="M7275 1394 c-110 -7 -310 -18 -445 -25 -135 -6 -265 -13 -290 -14
-25 -1 -139 -6 -255 -9 -115 -4 -250 -12 -300 -17 -49 -6 -109 -10 -132 -9
-24 0 -53 -6 -65 -14 -20 -13 -30 -13 -66 -3 -33 10 -76 10 -204 1 -90 -7
-291 -17 -448 -24 -242 -10 -287 -14 -297 -28 -9 -11 -13 -12 -13 -2 0 10 -26
12 -137 6 -76 -4 -190 -9 -253 -11 -181 -7 -283 -14 -315 -23 -17 -5 -39 -5
-51 1 -15 6 -32 4 -60 -10 -34 -17 -42 -18 -64 -7 -14 8 -38 12 -55 9 -27 -4
-206 -14 -595 -30 -69 -3 -280 -15 -470 -25 -190 -11 -435 -24 -545 -30 -110
-5 -283 -15 -385 -21 -220 -14 -239 -15 -440 -23 -85 -4 -204 -11 -265 -16
-60 -5 -225 -14 -365 -20 -140 -6 -318 -16 -395 -22 -77 -6 -153 -11 -170 -10
-16 0 -67 -2 -113 -5 l-82 -5 0 -59 0 -59 202 6 c112 3 226 9 253 14 28 5 86
9 130 10 44 0 157 5 250 10 94 6 262 15 375 20 279 13 730 38 810 45 86 7 573
31 995 50 486 21 494 21 516 48 16 20 18 20 19 4 0 -18 9 -18 143 -13 78 3
150 5 160 5 9 1 17 8 17 16 0 17 16 20 25 5 9 -14 125 -13 125 1 0 7 4 8 13 2
7 -5 78 -6 174 -2 359 16 449 20 698 35 143 8 339 19 435 24 328 18 385 22
392 26 4 3 130 7 280 11 150 3 278 9 284 14 6 5 13 6 16 4 6 -6 501 18 743 36
77 5 236 14 354 19 117 4 218 13 223 18 6 6 7 31 3 61 l-7 51 -76 -1 c-43 -1
-167 -8 -277 -15z m-1515 -154 c0 -5 -4 -10 -10 -10 -5 0 -10 5 -10 10 0 6 5
10 10 10 6 0 10 -4 10 -10z m-1840 -94 c0 -2 -7 -6 -15 -10 -8 -3 -15 -1 -15
4 0 6 7 10 15 10 8 0 15 -2 15 -4z m-3693 -172 c-3 -3 -12 -4 -19 -1 -8 3 -5
6 6 6 11 1 17 -2 13 -5z"/>
<path d="M7120 1233 c-81 -17 -128 -48 -169 -109 -44 -67 -61 -133 -61 -236 0
-161 52 -263 167 -329 51 -28 70 -33 149 -37 102 -5 159 8 169 39 5 14 16 19
45 19 31 0 44 6 70 37 56 63 73 116 78 231 4 101 -8 182 -31 210 -6 8 -12 20
-13 28 -4 29 -68 96 -113 119 -49 25 -144 46 -195 44 -17 -1 -60 -8 -96 -16z
m150 -119 c30 -6 73 -41 113 -93 23 -28 38 -233 18 -245 -6 -4 -11 -16 -11
-26 0 -21 -51 -76 -80 -85 -11 -4 -20 -11 -20 -17 0 -14 -65 -3 -135 23 -48
18 -57 26 -76 67 -35 80 -43 150 -25 222 20 78 48 117 100 141 44 20 66 22
116 13z"/>
<path d="M6533 1203 c-13 -2 -23 -9 -23 -14 0 -6 -4 -7 -10 -4 -5 3 -19 1 -31
-5 -17 -9 -23 -8 -34 6 -11 16 -20 17 -95 7 -48 -6 -86 -17 -91 -24 -5 -8 -8
-30 -7 -49 4 -47 33 -60 136 -60 59 0 82 -4 82 -12 0 -7 5 -80 11 -163 6 -82
11 -194 12 -248 2 -95 3 -100 30 -123 38 -33 81 -31 113 3 21 23 25 34 20 68
-3 22 -8 103 -11 180 -3 77 -8 177 -11 222 l-6 81 31 7 c17 4 35 14 41 23 9
16 11 16 24 0 32 -42 126 -2 126 52 0 50 -28 60 -165 59 -66 -1 -130 -4 -142
-6z"/>
<path d="M6027 1173 c-4 -4 -35 -7 -70 -8 -34 -1 -102 -2 -150 -3 -79 -2 -90
-4 -113 -27 l-25 -26 5 -157 c14 -405 20 -464 43 -484 17 -14 55 -15 316 -6
128 4 152 7 175 25 37 27 42 76 10 96 -38 24 -88 28 -183 14 -49 -7 -114 -11
-142 -9 l-53 4 0 83 c0 46 4 86 8 89 5 3 73 8 153 12 79 4 152 11 162 16 28
14 23 74 -8 94 -21 14 -39 15 -108 9 -90 -8 -206 -9 -214 -1 -3 2 -6 36 -6 75
l-2 71 85 0 c47 0 121 2 165 5 72 4 82 7 104 31 20 24 21 29 9 38 -8 6 -13 17
-10 25 8 24 -29 41 -88 41 -31 0 -60 -3 -63 -7z"/>
<path d="M5155 1139 c-105 -16 -111 -35 -94 -292 4 -67 10 -180 14 -250 3 -71
9 -135 12 -143 3 -8 17 -21 32 -28 23 -13 30 -12 61 7 34 20 59 45 60 58 0 4
-9 9 -20 12 -21 5 -18 32 6 52 8 7 9 30 4 75 -9 84 -4 100 29 100 33 0 131
-45 131 -61 0 -12 59 -92 72 -97 5 -2 8 -10 8 -19 0 -8 16 -35 36 -59 33 -40
40 -44 73 -41 51 6 91 24 91 41 0 20 -22 68 -36 81 -6 6 -15 23 -18 38 -4 15
-36 58 -72 94 -37 36 -62 63 -56 59 6 -3 18 2 28 11 10 10 23 18 29 18 16 0
62 55 75 89 16 43 12 113 -10 156 -27 53 -76 88 -140 100 -62 12 -230 11 -315
-1z m204 -119 c102 -13 126 -40 105 -117 -8 -30 -69 -50 -166 -57 -89 -5 -85
-9 -88 96 l-1 67 33 10 c42 12 32 12 117 1z"/>
<path d="M4649 1106 c-53 -14 -138 -73 -174 -120 -26 -34 -49 -110 -60 -198
-7 -55 5 -144 27 -203 38 -102 133 -179 236 -193 65 -9 178 4 217 25 31 17 71
63 55 63 -20 0 21 29 41 30 22 0 52 70 52 121 0 32 -6 47 -23 61 -30 24 -47
23 -54 -6 -5 -19 -11 -22 -31 -18 -18 3 -25 0 -25 -12 0 -9 8 -16 18 -16 11 0
6 -7 -15 -20 -18 -11 -33 -24 -33 -29 0 -34 -112 -83 -167 -73 -15 2 -42 15
-60 28 -17 13 -36 24 -41 24 -10 0 -17 22 -34 110 -14 74 -11 124 10 193 24
76 71 111 148 111 80 0 131 -35 166 -116 14 -33 119 -17 133 20 3 8 -2 28 -10
45 -8 16 -15 36 -15 44 0 7 -4 13 -10 13 -5 0 -10 6 -10 14 0 22 -90 85 -144
101 -59 18 -134 18 -197 1z m-149 -271 c0 -8 -7 -15 -16 -15 -14 0 -14 3 -4
15 7 8 14 15 16 15 2 0 4 -7 4 -15z m0 -205 c0 -5 -2 -10 -4 -10 -3 0 -8 5
-11 10 -3 6 -1 10 4 10 6 0 11 -4 11 -10z"/>
<path d="M4167 1074 c-3 -3 -70 -8 -149 -10 -196 -7 -193 -4 -193 -155 0 -92
10 -334 14 -334 1 0 3 -40 4 -88 5 -135 -7 -130 271 -121 202 6 230 9 252 26
30 24 32 68 3 94 -16 15 -36 19 -92 18 -40 0 -94 -4 -122 -9 -27 -6 -75 -8
-105 -5 l-54 5 -3 65 c-4 98 -4 102 -1 106 2 1 75 7 162 11 138 8 160 12 172
28 48 66 -39 118 -157 94 -50 -10 -178 -13 -187 -5 -2 2 -4 36 -5 75 -2 52 1
72 11 76 8 3 81 5 162 5 143 0 150 1 177 24 27 23 27 25 10 44 -14 15 -15 21
-5 25 10 4 8 10 -6 21 -20 16 -145 24 -159 10z"/>
<path d="M3408 1036 c-26 -7 -55 -19 -65 -26 -84 -64 -109 -115 -97 -198 5
-35 17 -57 48 -90 43 -45 82 -60 267 -103 50 -11 88 -40 90 -67 4 -64 -26 -97
-100 -107 -67 -9 -97 7 -144 78 -46 69 -73 85 -113 66 -82 -40 -35 -181 80
-242 33 -18 58 -22 131 -22 52 0 103 6 121 13 26 11 30 17 26 42 -3 23 0 30
13 30 12 0 15 -5 10 -19 -10 -33 14 -34 55 -1 56 45 71 79 72 164 1 88 -16
125 -74 159 -55 32 -169 67 -218 67 -22 0 -42 5 -45 10 -3 6 -27 10 -53 10
-42 0 -44 1 -27 14 15 11 17 17 8 28 -9 10 -7 19 7 38 11 14 20 33 20 42 0 15
9 16 59 13 61 -4 121 -27 121 -46 0 -7 10 -9 24 -5 30 7 41 -7 26 -34 -9 -17
-7 -22 14 -31 55 -25 107 25 92 87 -10 38 -63 100 -100 117 -46 22 -191 29
-248 13z m267 -86 c-3 -5 -21 -10 -40 -10 -19 0 -37 5 -40 10 -4 6 12 10 40
10 28 0 44 -4 40 -10z"/>
<path d="M2815 1002 c-39 -24 -61 -57 -68 -102 -5 -30 -107 -332 -161 -479 -9
-24 -16 -56 -16 -71 0 -57 86 -95 129 -56 10 9 26 45 36 81 9 35 22 68 29 74
6 5 68 11 138 12 l126 4 11 -36 c15 -50 66 -117 95 -125 27 -6 85 19 87 39 4
40 -7 81 -41 157 -21 47 -65 148 -99 225 -34 77 -72 161 -83 187 -42 94 -118
131 -183 90z m81 -219 c8 -3 14 -15 14 -27 0 -11 14 -52 30 -90 16 -38 29 -70
27 -71 -8 -7 -167 -12 -167 -6 0 4 9 34 20 66 11 32 20 68 20 81 0 13 4 25 9
28 4 3 12 20 16 38 7 29 9 30 12 10 3 -13 11 -26 19 -29z"/>
<path d="M2089 980 c-53 -4 -106 -13 -118 -20 -27 -14 -55 -75 -47 -104 3 -12
8 -93 12 -181 3 -88 8 -163 10 -166 2 -4 4 -42 5 -85 1 -103 13 -147 44 -164
22 -12 30 -11 62 6 21 10 39 19 40 19 1 0 4 12 8 26 5 21 2 27 -15 32 -18 5
-20 9 -10 26 6 12 15 21 21 21 7 0 8 28 4 85 l-7 85 41 0 c44 0 121 -33 121
-51 0 -11 70 -102 83 -107 4 -2 7 -11 7 -19 0 -22 68 -103 86 -103 8 0 14 4
14 10 0 5 6 7 13 4 16 -6 69 13 78 28 10 17 -14 81 -32 85 -10 3 -15 11 -12
18 6 18 -45 92 -96 138 -23 21 -35 37 -26 37 8 0 19 9 25 20 6 11 15 18 21 15
20 -13 73 68 84 126 16 85 -48 186 -130 207 -60 15 -179 20 -286 12z m308
-106 c-3 -3 -12 -4 -19 -1 -8 3 -5 6 6 6 11 1 17 -2 13 -5z m-71 -46 c19 -19
22 -30 17 -66 -4 -27 -12 -46 -22 -50 -9 -3 -19 -9 -22 -14 -3 -5 -52 -11
-107 -14 -81 -5 -102 -3 -103 8 -1 26 -1 104 0 130 1 33 19 38 130 33 72 -4
88 -8 107 -27z"/>
<path d="M1583 943 c-13 -2 -23 -9 -23 -14 0 -6 -5 -7 -10 -4 -6 4 -18 1 -26
-6 -11 -9 -18 -9 -32 4 -25 23 -157 12 -184 -15 -22 -22 -23 -57 -4 -84 12
-16 29 -20 114 -22 l99 -4 8 -151 c4 -84 10 -179 11 -212 2 -33 3 -81 3 -108
0 -38 5 -52 27 -72 36 -34 83 -33 112 0 22 26 22 26 12 238 -15 323 -16 314
20 322 16 4 34 14 39 23 9 16 10 16 16 0 5 -13 18 -18 45 -18 65 0 109 61 76
105 -13 18 -27 20 -148 22 -73 0 -143 -1 -155 -4z m67 -43 c0 -5 -5 -10 -11
-10 -5 0 -7 5 -4 10 3 6 8 10 11 10 2 0 4 -4 4 -10z"/>
<path d="M593 881 c-12 -10 -25 -31 -29 -46 -6 -24 -2 -32 22 -52 28 -22 28
-23 6 -23 -21 0 -22 -3 -21 -77 1 -43 4 -82 6 -87 7 -11 4 -178 -3 -231 -5
-34 -11 -43 -43 -57 -43 -21 -113 -23 -160 -7 -53 19 -68 69 -75 245 -4 102
-10 150 -18 156 -10 6 -10 8 1 8 24 0 9 105 -19 135 -32 34 -93 35 -114 2 -17
-25 -20 -133 -4 -143 5 -4 5 -11 -2 -18 -7 -9 -7 -60 -1 -162 10 -160 15 -184
38 -184 11 0 13 -7 9 -25 -8 -31 5 -57 47 -96 55 -49 105 -63 210 -56 166 11
222 40 269 142 20 44 22 66 22 180 0 277 -19 405 -61 405 -10 0 -27 2 -38 5
-11 3 -30 -3 -42 -14z m47 -21 c0 -5 -7 -7 -15 -4 -8 4 -15 8 -15 10 0 2 7 4
15 4 8 0 15 -4 15 -10z"/>
<path d="M800 880 c-29 -29 -33 -61 -26 -189 3 -64 10 -188 15 -276 5 -88 14
-172 20 -187 15 -39 55 -46 211 -36 254 17 259 18 275 42 16 24 6 83 -16 97
-6 4 -82 4 -169 2 l-157 -5 -7 153 c-4 85 -10 158 -14 164 -3 5 -5 48 -3 95 2
84 -9 137 -32 152 -23 15 -77 8 -97 -12z"/>
<path d="M7515 511 c-55 -4 -109 -12 -121 -18 -14 -8 -24 -9 -31 -2 -10 10
-112 6 -583 -22 -96 -6 -230 -12 -297 -14 -67 -3 -213 -9 -325 -15 -112 -7
-234 -13 -273 -15 -38 -2 -114 -4 -167 -4 -53 -1 -159 -8 -234 -16 -75 -8
-153 -15 -174 -15 -29 0 -41 -6 -54 -25 -9 -13 -16 -32 -16 -42 0 -15 -2 -15
-14 3 -9 12 -11 23 -5 29 5 5 9 15 9 22 0 15 -130 12 -435 -9 -88 -6 -203 -13
-255 -15 -155 -6 -270 -12 -360 -18 -141 -10 -214 -14 -237 -15 -12 0 -25 -5
-28 -11 -5 -7 -12 -6 -21 2 -11 9 -56 9 -197 0 -100 -6 -290 -16 -422 -21
-132 -6 -314 -15 -405 -20 -91 -6 -199 -10 -240 -11 -41 0 -167 -9 -279 -20
-184 -18 -206 -22 -222 -42 -10 -12 -16 -28 -14 -35 6 -16 -3 -15 -20 2 -12
12 -12 16 0 26 8 7 15 19 15 28 0 11 -8 13 -38 8 -20 -4 -107 -9 -192 -12 -85
-2 -182 -9 -215 -14 -33 -5 -103 -9 -155 -9 -52 0 -205 -7 -340 -15 -135 -8
-309 -18 -388 -22 -121 -6 -142 -9 -142 -23 0 -13 -2 -13 -9 -2 -7 11 -53 12
-292 1 -156 -6 -287 -15 -291 -19 -4 -3 -5 -30 -1 -59 l6 -52 96 0 c53 0 206
7 341 15 135 8 358 19 495 25 138 6 304 15 370 20 66 5 239 14 385 20 146 6
281 16 300 22 19 6 73 10 120 9 47 -1 166 3 265 9 99 5 333 17 520 25 187 8
392 19 455 25 63 5 205 14 315 20 110 5 261 13 335 17 74 3 158 7 185 7 42 1
52 5 60 24 12 27 25 29 25 2 0 -18 7 -20 59 -20 32 0 148 7 257 14 110 8 273
18 364 21 91 4 169 9 174 12 5 4 64 7 130 9 130 3 542 21 721 32 103 7 110 8
122 32 l12 24 11 -28 c9 -25 14 -28 43 -22 17 3 133 10 257 16 124 6 326 17
450 25 124 8 295 16 380 19 85 3 206 8 268 12 l112 7 0 63 0 64 -32 -2 c-18
-1 -78 -4 -133 -7z m-6845 -431 c0 -5 -9 -10 -20 -10 -11 0 -20 5 -20 10 0 6
9 10 20 10 11 0 20 -4 20 -10z"/>
</g>
</svg>
