<?xml version="1.0" standalone="no"?>
<!DOCTYPE svg PUBLIC "-//W3C//DTD SVG 20010904//EN"
 "http://www.w3.org/TR/2001/REC-SVG-20010904/DTD/svg10.dtd">
<svg version="1.0" xmlns="http://www.w3.org/2000/svg"
 width="768.000000pt" height="141.000000pt" viewBox="0 0 768.000000 141.000000"
 preserveAspectRatio="xMidYMid meet">

<g transform="translate(0.000000,141.000000) scale(0.100000,-0.100000)"
fill="#000000" stroke="none">
<path d="M7090 1375 c-574 -34 -589 -34 -775 -40 -93 -4 -226 -11 -295 -16
-69 -6 -142 -11 -163 -10 -21 0 -52 -6 -69 -15 -26 -13 -35 -14 -71 -2 -53 17
-294 1 -321 -21 -12 -10 -16 -11 -16 -1 0 13 -83 12 -454 -7 -124 -6 -130 -7
-158 -35 -29 -28 -48 -36 -48 -19 0 5 8 12 18 14 16 4 16 5 -1 6 -10 0 -15 6
-12 11 7 12 -66 13 -169 3 -57 -5 -70 -9 -74 -26 -5 -19 -6 -19 -18 -2 -12 16
-29 18 -151 16 -131 -2 -264 -14 -285 -27 -5 -3 -15 0 -23 6 -12 10 -23 8 -55
-9 -37 -19 -44 -20 -74 -7 -19 8 -36 13 -38 11 -3 -3 -154 -11 -1058 -55 -437
-22 -497 -26 -506 -42 -4 -7 -9 -6 -14 1 -5 9 -60 9 -221 1 -118 -6 -227 -13
-244 -15 -47 -6 -268 -20 -285 -17 -14 2 -162 -6 -555 -28 -93 -5 -271 -14
-395 -20 -277 -13 -325 -19 -325 -42 0 -23 -11 -32 -31 -24 -14 5 -14 9 -3 22
11 14 10 15 -6 13 -11 -2 -25 0 -31 3 -6 4 -43 4 -82 1 -68 -6 -72 -7 -72 -31
0 -17 4 -23 15 -18 9 3 15 0 15 -9 0 -8 -7 -15 -15 -15 -8 0 -15 -7 -15 -14 0
-13 27 -14 178 -10 97 3 209 10 247 15 39 6 99 10 133 9 146 -3 877 42 904 55
17 8 28 9 30 3 4 -11 463 8 482 19 5 4 30 6 55 4 49 -2 641 25 726 34 28 3
169 10 315 15 388 15 428 18 435 41 8 23 45 26 45 4 0 -13 12 -15 68 -13 57 3
67 6 64 21 -2 9 2 17 8 17 5 0 10 -6 10 -14 0 -16 38 -23 103 -18 43 4 47 6
41 25 -5 16 -3 19 10 14 25 -10 19 9 -9 27 -14 9 -23 21 -20 26 8 13 35 1 35
-16 0 -9 11 -14 30 -14 23 0 31 -5 36 -25 5 -21 12 -25 40 -25 19 0 34 5 34
10 0 15 40 12 40 -2 1 -8 6 -6 14 5 7 9 17 17 23 17 5 0 19 9 31 21 13 11 30
19 40 16 14 -3 12 -6 -8 -14 -14 -6 -32 -18 -39 -27 -12 -14 -5 -16 75 -15 49
1 127 4 173 7 78 7 85 9 86 29 2 28 10 37 25 28 9 -6 9 -9 0 -15 -7 -4 -10
-15 -7 -23 5 -12 17 -15 59 -11 64 5 532 30 828 44 118 6 235 13 260 17 25 3
62 5 83 4 35 -2 37 -1 37 29 0 27 3 31 23 28 12 -2 26 -13 32 -25 12 -28 61
-38 82 -17 11 11 19 12 26 5 15 -15 27 -14 27 4 0 8 4 15 9 15 5 0 18 3 28 7
16 6 17 5 4 -11 -14 -17 -7 -18 155 -12 93 3 191 6 217 6 27 -1 62 6 80 15 21
11 33 12 37 4 7 -11 345 2 585 22 61 5 127 9 148 9 25 0 39 5 43 15 4 8 10 15
15 15 4 0 6 -7 3 -15 -5 -13 9 -14 102 -10 201 10 274 17 279 25 3 5 3 27 -1
49 l-7 41 -66 -1 c-36 -1 -244 -12 -461 -24z m-35 -24 c3 -5 1 -12 -5 -16 -5
-3 -10 1 -10 9 0 18 6 21 15 7z m280 -11 c8 -13 -15 -13 -35 0 -12 8 -11 10 7
10 12 0 25 -4 28 -10z m-1485 -46 c0 -9 -31 -37 -36 -32 -9 9 8 38 22 38 8 0
14 -3 14 -6z m875 -4 c-3 -5 -11 -10 -16 -10 -6 0 -7 5 -4 10 3 6 11 10 16 10
6 0 7 -4 4 -10z m-710 -20 c3 -5 -3 -10 -14 -10 -12 0 -21 5 -21 10 0 6 6 10
14 10 8 0 18 -4 21 -10z m775 6 c0 -2 -11 -6 -25 -8 -13 -3 -22 -1 -19 3 5 9
44 13 44 5z m-930 -16 c0 -5 -4 -10 -10 -10 -5 0 -10 5 -10 10 0 6 5 10 10 10
6 0 10 -4 10 -10z m-375 -30 c3 -5 -1 -10 -9 -10 -9 0 -16 5 -16 10 0 6 4 10
9 10 6 0 13 -4 16 -10z m-782 -15 c1 -5 -6 -11 -15 -13 -11 -2 -18 3 -18 13 0
17 30 18 33 0z m151 -10 c4 -10 -1 -15 -15 -15 -17 0 -18 2 -7 15 16 18 15 18
22 0z m576 -1 c0 -2 -7 -4 -15 -4 -8 0 -15 4 -15 10 0 5 7 7 15 4 8 -4 15 -8
15 -10z m-880 -4 c0 -5 -8 -10 -17 -10 -15 0 -16 2 -3 10 19 12 20 12 20 0z
m-550 -6 c0 -10 -27 -33 -33 -28 -9 10 4 34 19 34 8 0 14 -3 14 -6z m550 -24
c0 -11 -48 -25 -57 -16 -4 3 3 6 15 6 12 0 22 5 22 10 0 6 5 10 10 10 6 0 10
-4 10 -10z m-1100 -10 c0 -5 -7 -10 -15 -10 -8 0 -18 0 -22 -1 -4 0 -9 4 -11
10 -2 6 8 11 22 11 14 0 26 -4 26 -10z m560 0 c0 -5 -2 -10 -4 -10 -3 0 -8 5
-11 10 -3 6 -1 10 4 10 6 0 11 -4 11 -10z m-408 -32 c-7 -7 -12 -8 -12 -2 0
14 12 26 19 19 2 -3 -1 -11 -7 -17z m63 12 c3 -5 -1 -10 -9 -10 -9 0 -16 5
-16 10 0 6 4 10 9 10 6 0 13 -4 16 -10z m-275 -20 c0 -5 -2 -10 -4 -10 -3 0
-8 5 -11 10 -3 6 -1 10 4 10 6 0 11 -4 11 -10z m260 -10 c0 -5 -9 -10 -20 -10
-11 0 -20 5 -20 10 0 6 9 10 20 10 11 0 20 -4 20 -10z m-1290 -51 c0 -6 -4 -7
-10 -4 -5 3 -10 11 -10 16 0 6 5 7 10 4 6 -3 10 -11 10 -16z m-36 -18 c3 -4
-6 -6 -19 -3 -14 2 -25 6 -25 8 0 8 39 4 44 -5z m-539 -11 c-3 -5 -10 -10 -16
-10 -5 0 -9 5 -9 10 0 6 7 10 16 10 8 0 12 -4 9 -10z m-724 -43 c-13 -13 -26
-3 -16 12 3 6 11 8 17 5 6 -4 6 -10 -1 -17z m-631 -17 c21 -19 22 -20 4 -20
-20 0 -44 17 -44 32 0 14 16 9 40 -12z m-260 -14 c0 -3 -4 -8 -10 -11 -5 -3
-10 -1 -10 4 0 6 5 11 10 11 6 0 10 -2 10 -4z"/>
<path d="M7179 1233 c-16 -2 -29 -12 -32 -24 -3 -10 -10 -19 -16 -19 -6 0 -8
7 -5 15 9 23 -34 19 -81 -8 -51 -29 -109 -106 -130 -174 -13 -41 -16 -80 -13
-157 3 -91 7 -109 36 -168 31 -64 96 -128 128 -128 7 0 14 -5 16 -11 8 -25
198 -40 253 -19 20 8 25 15 20 30 -4 13 -2 20 7 21 7 0 33 1 58 2 42 2 47 5
77 50 45 67 63 135 63 236 0 90 -12 152 -34 173 -7 7 -16 25 -19 40 -10 37
-90 104 -145 122 -52 16 -143 26 -183 19z m41 -33 c0 -5 -7 -10 -15 -10 -8 0
-15 5 -15 10 0 6 7 10 15 10 8 0 15 -4 15 -10z m-180 -74 c0 -3 -4 -8 -10 -11
-5 -3 -10 -1 -10 4 0 6 5 11 10 11 6 0 10 -2 10 -4z m241 -6 c20 -6 47 -21 60
-34 60 -59 66 -72 77 -168 13 -123 13 -135 -4 -149 -8 -6 -14 -19 -14 -28 -1
-21 -55 -81 -74 -81 -8 0 -19 -8 -24 -17 -9 -15 -17 -16 -70 -6 -84 16 -152
47 -152 70 0 32 -19 42 -52 31 -39 -14 -46 -4 -8 12 30 12 31 14 23 59 -37
213 73 357 238 311z m176 -71 c-14 -8 -22 -8 -30 0 -8 8 -3 11 19 11 25 -1 27
-2 11 -11z m-522 -139 c3 -5 2 -10 -4 -10 -5 0 -13 5 -16 10 -3 6 -2 10 4 10
5 0 13 -4 16 -10z m70 -30 c3 -5 -1 -10 -9 -10 -9 0 -16 5 -16 10 0 6 4 10 9
10 6 0 13 -4 16 -10z m432 -266 c-3 -3 -12 -4 -19 -1 -8 3 -5 6 6 6 11 1 17
-2 13 -5z"/>
<path d="M6550 1193 c-14 -3 -29 -8 -35 -13 -20 -15 -67 -21 -81 -9 -9 7 -41
10 -89 7 -80 -4 -95 -12 -95 -54 0 -38 27 -49 123 -51 49 -1 91 -4 94 -7 5 -4
24 -272 27 -371 0 -27 5 -56 10 -64 5 -8 4 -16 -4 -21 -19 -12 -2 -67 27 -90
31 -24 66 -26 84 -4 12 15 11 16 -8 10 -12 -4 -24 -2 -28 4 -4 6 8 10 31 10
36 0 36 1 30 31 -3 17 -6 38 -6 45 0 8 -8 14 -17 14 -15 0 -15 1 1 13 17 12
17 25 7 209 -6 108 -11 203 -11 211 0 9 13 18 32 23 18 3 37 13 43 20 11 15
59 8 49 -7 -8 -13 33 -11 59 2 46 24 52 74 11 89 -25 10 -205 12 -254 3z m63
-20 c-8 -24 -24 -43 -34 -43 -16 0 -9 39 9 49 25 15 32 13 25 -6z m-78 -33
c-3 -5 -10 -10 -16 -10 -5 0 -9 5 -9 10 0 6 7 10 16 10 8 0 12 -4 9 -10z m230
0 c-3 -5 -11 -10 -16 -10 -6 0 -7 5 -4 10 3 6 11 10 16 10 6 0 7 -4 4 -10z
m-331 -29 c3 -5 -1 -12 -10 -15 -20 -8 -29 -1 -19 13 8 13 22 14 29 2z m131
-70 c17 -10 17 -12 2 -7 -10 3 -23 6 -28 6 -5 0 -9 8 -9 18 0 10 3 13 8 6 4
-6 16 -16 27 -23z m-7 -50 c3 -8 -1 -12 -9 -9 -7 2 -15 10 -17 17 -3 8 1 12 9
9 7 -2 15 -10 17 -17z m16 -77 c9 -3 16 -10 16 -16 0 -14 -43 -5 -48 10 -4 13
7 15 32 6z m-24 -169 c10 -12 10 -15 -4 -15 -9 0 -16 7 -16 15 0 8 2 15 4 15
2 0 9 -7 16 -15z m40 -45 c0 -5 -4 -10 -10 -10 -5 0 -10 5 -10 10 0 6 5 10 10
10 6 0 10 -4 10 -10z m-20 -34 c0 -9 -40 -13 -46 -5 -3 5 6 9 20 9 14 0 26 -2
26 -4z"/>
<path d="M6030 1163 c-8 -4 -21 -12 -28 -20 -7 -7 -21 -13 -30 -12 -14 0 -13
2 3 8 33 13 -39 18 -150 11 -55 -4 -92 -7 -83 -8 9 -1 20 -7 24 -13 4 -7 -5
-10 -28 -8 -35 3 -58 -5 -58 -22 0 -5 9 -9 20 -9 11 0 20 -4 20 -9 0 -5 -10
-7 -22 -3 -20 5 -21 3 -10 -10 10 -12 10 -18 1 -24 -9 -5 -10 -37 -6 -117 4
-61 9 -112 12 -115 2 -3 11 1 20 8 12 10 15 10 15 -5 0 -9 -9 -19 -21 -22 -18
-5 -19 -11 -14 -47 4 -22 9 -42 10 -44 2 -2 20 0 40 4 25 4 39 13 43 26 3 13
10 17 23 13 13 -4 19 -1 19 9 0 17 25 23 148 32 65 4 92 10 92 19 0 7 7 16 16
19 12 4 14 1 9 -14 -5 -17 -2 -20 22 -20 35 0 53 16 53 46 0 34 -37 54 -100
54 -78 0 -102 -8 -95 -31 7 -23 -2 -24 -24 -5 -18 17 -120 33 -122 20 -6 -41
-5 -60 4 -66 6 -3 -7 -13 -28 -22 -47 -20 -45 -20 -45 5 0 16 4 19 23 14 15
-4 18 -3 8 3 -10 8 -11 10 -1 14 18 6 22 28 24 133 l1 90 95 7 c52 3 127 7
165 7 88 0 116 16 96 54 -7 14 -11 30 -7 35 11 18 -95 30 -134 15z m-108 -68
c0 -5 -5 -11 -11 -13 -6 -2 -11 4 -11 13 0 9 5 15 11 13 6 -2 11 -8 11 -13z
m-182 -55 c0 -5 -4 -10 -10 -10 -5 0 -10 5 -10 10 0 6 5 10 10 10 6 0 10 -4
10 -10z m40 -186 c0 -13 -6 -24 -13 -24 -19 0 -28 11 -19 24 4 6 7 14 8 19 1
4 2 10 3 13 3 15 21 -11 21 -32z m234 -45 c-8 -14 -24 -10 -24 6 0 9 6 12 15
9 8 -4 12 -10 9 -15z"/>
<path d="M5156 1131 c-35 -5 -55 -15 -72 -35 -23 -26 -26 -52 -15 -158 1 -5 6
-8 12 -8 8 0 7 5 -1 15 -15 18 -7 30 13 22 8 -3 15 -17 15 -31 0 -19 -6 -26
-21 -26 -19 0 -20 -4 -13 -87 5 -49 7 -111 6 -139 0 -36 4 -57 15 -68 15 -14
15 -16 1 -16 -23 0 -20 -21 4 -27 23 -6 27 -23 5 -23 -11 0 -15 -11 -15 -36 0
-45 17 -77 36 -70 9 3 12 1 9 -4 -10 -16 21 -12 54 7 38 22 39 38 4 57 -24 12
-26 15 -10 21 9 4 17 13 17 20 0 7 5 15 11 17 7 2 12 36 13 88 l1 85 34 3 c36
4 169 -57 151 -68 -12 -7 49 -90 66 -90 7 0 10 -8 7 -19 -6 -25 69 -107 88
-96 7 5 25 9 42 11 16 1 33 6 38 11 13 13 -17 83 -36 83 -8 0 -12 6 -9 14 9
23 -20 67 -80 124 -54 52 -72 80 -41 68 9 -3 21 4 31 19 9 14 20 22 26 19 27
-17 78 75 78 141 0 69 -40 129 -110 166 -29 15 -275 22 -354 10z m314 -61 c0
-5 -7 -7 -15 -4 -8 4 -15 8 -15 10 0 2 7 4 15 4 8 0 15 -4 15 -10z m64 -27
c10 -25 -14 -33 -42 -15 -23 15 -23 16 -6 23 30 12 41 10 48 -8z m-145 -18
c67 -8 101 -37 94 -82 -9 -61 -14 -71 -34 -76 -13 -4 -18 -10 -13 -18 5 -9 1
-11 -14 -7 -12 4 -22 2 -22 -3 0 -5 8 -10 18 -10 16 -1 16 -2 -1 -6 -9 -2 -15
-8 -12 -13 3 -5 12 -7 19 -4 7 3 19 -2 26 -11 11 -13 8 -15 -19 -15 -17 0 -31
5 -31 10 0 6 -5 10 -11 10 -6 0 -9 -9 -6 -20 3 -12 0 -20 -8 -20 -23 0 -25 39
-2 51 37 20 -6 32 -88 24 -70 -6 -72 -6 -79 17 -3 13 -6 55 -6 95 l0 71 38 10
c20 5 51 8 67 6 17 -1 54 -6 84 -9z m58 9 c-3 -3 -12 -4 -19 -1 -8 3 -5 6 6 6
11 1 17 -2 13 -5z m-301 -50 c-3 -9 -6 -18 -6 -20 0 -3 -4 -3 -10 1 -11 7 -2
35 12 35 6 0 7 -7 4 -16z m14 -84 c0 -5 -9 -10 -21 -10 -11 0 -17 5 -14 10 3
6 13 10 21 10 8 0 14 -4 14 -10z m-35 -50 c-3 -5 -11 -10 -16 -10 -6 0 -7 5
-4 10 3 6 11 10 16 10 6 0 7 -4 4 -10z m50 -170 c3 -5 2 -10 -4 -10 -5 0 -13
5 -16 10 -3 6 -2 10 4 10 5 0 13 -4 16 -10z m-45 -164 c0 -2 -7 -7 -16 -10 -8
-3 -12 -2 -9 4 6 10 25 14 25 6z m35 -26 c3 -5 -3 -10 -15 -10 -12 0 -18 5
-15 10 3 6 10 10 15 10 5 0 12 -4 15 -10z m40 -10 c3 -5 -1 -10 -10 -10 -9 0
-13 5 -10 10 3 6 8 10 10 10 2 0 7 -4 10 -10z"/>
<path d="M3905 1120 c3 -5 8 -10 11 -10 2 0 4 5 4 10 0 6 -5 10 -11 10 -5 0
-7 -4 -4 -10z"/>
<path d="M4677 1100 c-46 -8 -60 -15 -145 -72 -49 -33 -78 -90 -100 -196 -14
-69 -14 -89 -3 -148 22 -118 59 -178 157 -254 33 -25 208 -43 228 -23 4 4 21
8 38 9 28 2 95 54 68 54 -19 0 -10 17 17 29 20 9 24 14 14 21 -11 6 -10 9 5
13 10 2 0 5 -23 6 -48 1 -58 16 -16 24 29 5 77 -19 67 -34 -3 -5 0 -9 6 -9 16
0 40 64 40 108 0 25 -7 45 -18 55 -25 23 -29 22 -41 -15 -7 -19 -26 -43 -46
-56 -20 -12 -41 -34 -47 -47 -6 -14 -17 -25 -24 -25 -7 0 -17 -7 -22 -15 -6
-11 -27 -16 -78 -18 -60 -2 -73 1 -104 24 -19 14 -43 29 -53 32 -10 4 -15 12
-12 18 4 5 2 23 -5 39 -8 20 -17 27 -28 23 -14 -5 -15 -3 -4 8 19 20 15 86 -5
93 -14 6 -15 9 -3 16 7 5 15 21 17 37 2 15 10 45 18 66 8 20 15 45 15 55 0 9
18 28 40 42 25 15 40 32 40 44 0 20 0 20 15 0 14 -18 14 -18 15 6 1 21 2 23
13 10 7 -8 22 -16 35 -17 35 -4 122 -47 122 -60 0 -7 8 -21 18 -31 10 -10 21
-26 25 -35 7 -19 57 -23 88 -7 20 11 26 54 9 65 -5 3 -10 15 -10 26 0 10 -4
19 -10 19 -5 0 -10 9 -10 20 0 25 -32 44 -48 28 -9 -9 -12 -6 -12 11 0 45
-137 80 -243 61z m23 -54 c0 -3 -4 -8 -10 -11 -5 -3 -10 -1 -10 4 0 6 5 11 10
11 6 0 10 -2 10 -4z m274 -92 c4 -11 1 -14 -11 -12 -9 2 -18 9 -21 16 -6 18
25 15 32 -4z m-439 -14 c3 -5 -3 -10 -14 -10 -12 0 -21 5 -21 10 0 6 6 10 14
10 8 0 18 -4 21 -10z m380 0 c3 -5 -1 -10 -9 -10 -8 0 -18 5 -21 10 -3 6 1 10
9 10 8 0 18 -4 21 -10z m85 -20 c0 -5 -10 -10 -22 -10 -19 0 -20 2 -8 10 19
13 30 13 30 0z m-505 -56 c21 -20 23 -29 14 -40 -20 -25 -46 -17 -53 17 -5 28
-1 49 9 49 2 0 16 -12 30 -26z m35 -54 c0 -5 -5 -10 -11 -10 -5 0 -7 5 -4 10
3 6 8 10 11 10 2 0 4 -4 4 -10z m-35 -30 c3 -6 -1 -7 -9 -4 -18 7 -21 14 -7
14 6 0 13 -4 16 -10z m15 -40 c0 -5 -17 -10 -37 -9 -31 0 -34 2 -18 9 28 12
55 12 55 0z m-43 -36 c-3 -3 -12 -4 -19 -1 -8 3 -5 6 6 6 11 1 17 -2 13 -5z
m59 -75 c19 -21 19 -22 -3 -15 -12 4 -24 2 -28 -4 -3 -5 -11 -10 -16 -10 -6 0
-8 4 -4 9 3 5 1 12 -5 16 -18 11 -11 25 13 25 13 0 32 -10 43 -21z m-16 -49
c0 -5 8 -10 18 -10 16 -1 16 -1 -1 -11 -24 -14 -48 -4 -41 16 7 17 24 21 24 5z
m120 -82 c0 -5 -4 -8 -10 -8 -5 0 -10 10 -10 23 0 18 2 19 10 7 5 -8 10 -18
10 -22z m258 13 c10 -6 5 -11 -19 -20 -37 -13 -42 -11 -33 13 7 17 31 21 52 7z
m-221 -17 c-3 -3 -12 -4 -19 -1 -8 3 -5 6 6 6 11 1 17 -2 13 -5z m106 -51 c-6
-14 -8 -14 -20 3 -19 26 -16 36 7 24 12 -6 17 -16 13 -27z m67 17 c0 -5 -4
-10 -10 -10 -5 0 -10 5 -10 10 0 6 5 10 10 10 6 0 10 -4 10 -10z m-23 -26 c-3
-3 -12 -4 -19 -1 -8 3 -5 6 6 6 11 1 17 -2 13 -5z"/>
<path d="M4167 1056 c-11 -11 -17 -12 -25 -4 -7 7 -15 8 -19 4 -4 -4 -1 -11 7
-16 12 -8 12 -10 1 -10 -8 0 -19 6 -25 14 -9 12 -32 14 -121 9 -70 -4 -101 -9
-85 -14 20 -6 17 -7 -17 -8 -24 -1 -43 -5 -43 -11 0 -5 0 -13 0 -17 0 -5 4 -8
9 -8 5 0 13 -3 17 -7 4 -5 0 -8 -9 -8 -10 0 -14 -5 -11 -15 4 -8 1 -15 -6 -15
-10 0 -11 -27 -5 -117 3 -65 8 -120 11 -122 2 -2 10 2 19 9 12 10 15 10 15 -5
0 -9 -9 -19 -21 -22 -15 -4 -19 -11 -15 -27 3 -11 6 -29 6 -38 0 -13 8 -18 29
-18 40 0 61 9 61 27 0 10 7 14 19 10 13 -3 21 1 24 13 4 15 21 19 120 25 101
6 116 10 120 26 3 11 10 19 17 19 7 0 9 -8 5 -20 -5 -16 -2 -20 19 -20 26 0
66 31 66 50 0 19 -39 49 -73 55 -35 7 -163 -14 -139 -22 14 -5 16 -33 2 -33
-5 0 -10 4 -10 9 0 21 -128 44 -131 24 -7 -37 -5 -59 5 -65 7 -5 5 -8 -6 -8
-9 0 -18 -4 -20 -9 -1 -4 -13 -12 -25 -15 -19 -6 -23 -4 -23 14 0 12 10 25 23
31 28 13 27 8 31 128 3 65 8 96 17 102 8 5 48 9 89 8 146 -1 239 6 251 18 10
10 10 18 0 37 -8 13 -11 29 -7 34 15 25 -123 32 -147 8z m-87 -56 c0 -5 -7
-10 -15 -10 -8 0 -15 5 -15 10 0 6 7 10 15 10 8 0 15 -4 15 -10z m-185 -60 c3
-5 2 -10 -4 -10 -5 0 -13 5 -16 10 -3 6 -2 10 4 10 5 0 13 -4 16 -10z m34
-168 c12 -23 -1 -45 -22 -36 -10 3 -14 11 -10 18 4 6 8 14 9 19 1 4 2 9 3 12
2 10 10 5 20 -13z m233 -57 c0 -5 -5 -11 -11 -13 -6 -2 -11 4 -11 13 0 9 5 15
11 13 6 -2 11 -8 11 -13z"/>
<path d="M3407 1026 c-91 -34 -157 -108 -157 -177 0 -87 65 -161 158 -179 31
-6 75 -17 97 -25 22 -7 54 -16 70 -20 71 -16 104 -62 84 -122 -13 -41 -52 -63
-123 -69 -61 -6 -106 17 -132 68 -38 77 -91 100 -129 58 -17 -19 -18 -26 -6
-68 7 -26 23 -61 36 -78 51 -66 179 -100 284 -74 50 12 52 13 49 44 -3 29 -1
31 35 34 35 3 52 -11 25 -21 -7 -2 -10 -7 -6 -11 3 -4 27 12 52 37 42 40 46
48 47 93 2 108 -11 153 -54 175 -12 7 -24 15 -27 20 -8 12 -126 49 -178 56
l-47 6 19 -22 c19 -21 19 -21 -7 -21 -21 0 -26 5 -29 28 -3 25 -7 27 -55 30
-50 3 -66 13 -42 27 6 4 8 14 5 22 -3 8 5 35 19 61 14 26 25 54 25 62 0 8 11
20 25 27 29 13 32 7 8 -20 -17 -19 -17 -20 0 -14 9 4 17 2 17 -2 0 -5 15 -9
33 -8 33 1 107 -29 107 -43 0 -4 26 -6 58 -4 31 2 51 1 45 -2 -7 -3 -13 -12
-13 -20 0 -9 -7 -14 -17 -12 -30 5 -28 -30 3 -38 21 -6 31 -2 46 16 22 27 23
52 3 90 -17 34 -27 37 -45 15 -19 -23 -93 -20 -115 5 -18 20 -17 20 53 20 40
0 72 4 72 8 0 15 -76 51 -106 51 -16 -1 -56 2 -89 5 -41 4 -72 2 -98 -8z m128
-6 c3 -5 15 -10 26 -10 27 0 24 -13 -7 -27 -22 -10 -25 -10 -20 4 4 9 -1 21
-11 29 -10 7 -13 14 -6 14 6 0 15 -4 18 -10z m-164 -43 c-1 -12 -15 -9 -19 4
-3 6 1 10 8 8 6 -3 11 -8 11 -12z m139 9 c0 -3 -4 -8 -10 -11 -5 -3 -10 -1
-10 4 0 6 5 11 10 11 6 0 10 -2 10 -4z m-70 -223 c8 -7 -32 -33 -51 -33 -26 0
-50 11 -44 21 3 4 19 6 35 2 19 -3 30 -1 30 5 0 6 -7 9 -15 6 -8 -4 -15 -1
-15 6 0 12 47 6 60 -7z m122 -34 c-12 -5 -22 -13 -22 -19 0 -5 -7 -10 -15 -10
-8 0 -15 5 -15 10 0 6 5 10 11 10 6 0 17 7 26 15 8 8 20 12 26 8 6 -4 2 -9
-11 -14z m106 -27 c2 -7 -6 -12 -17 -12 -21 0 -27 11 -14 24 9 9 26 2 31 -12z
m-153 -22 c4 -6 -5 -10 -19 -10 -14 0 -26 5 -26 10 0 6 9 10 19 10 11 0 23 -4
26 -10z m105 -10 c0 -5 -4 -10 -10 -10 -5 0 -10 5 -10 10 0 6 5 10 10 10 6 0
10 -4 10 -10z m45 0 c-3 -5 -10 -10 -16 -10 -5 0 -9 5 -9 10 0 6 7 10 16 10 8
0 12 -4 9 -10z"/>
<path d="M2824 991 c-18 -11 -39 -30 -48 -42 -18 -26 -22 -69 -6 -69 6 0 10
-4 10 -10 0 -5 -6 -10 -14 -10 -8 0 -17 -8 -21 -17 -13 -31 -146 -416 -157
-456 -13 -47 1 -83 38 -97 52 -20 79 7 104 105 17 70 20 72 166 78 l132 6 33
-66 c19 -37 46 -76 60 -86 24 -17 30 -18 55 -5 24 11 29 20 31 50 2 41 -21
108 -38 108 -5 0 -8 4 -5 9 3 4 -23 71 -58 147 -35 77 -77 175 -95 220 -34 85
-67 129 -108 145 -34 13 -44 12 -79 -10z m62 -166 c3 -13 12 -29 20 -36 8 -6
14 -21 14 -33 0 -11 14 -50 30 -84 17 -35 30 -69 30 -76 0 -9 -28 -15 -92 -20
-50 -3 -93 -4 -96 -1 -3 2 5 42 17 87 51 190 63 217 77 163z m-56 -275 c0 -5
-5 -10 -11 -10 -5 0 -7 5 -4 10 3 6 8 10 11 10 2 0 4 -4 4 -10z"/>
<path d="M2097 969 c-94 -5 -111 -9 -132 -29 -22 -21 -25 -31 -24 -97 1 -40 5
-76 11 -79 6 -4 8 1 4 14 -4 11 -2 23 3 26 10 6 24 -10 27 -29 0 -5 2 -16 2
-24 1 -8 10 -11 22 -8 11 3 22 2 25 -3 3 -4 -5 -10 -17 -13 -12 -4 -25 -2 -28
2 -3 5 -14 11 -25 13 -19 3 -20 -2 -16 -82 1 -47 7 -87 12 -88 5 -2 6 -9 2
-15 -10 -17 -3 -101 10 -109 9 -6 9 -8 0 -8 -21 0 -14 -26 10 -38 l22 -11 -22
0 c-18 -1 -23 -7 -23 -26 0 -27 9 -32 28 -13 8 8 12 8 12 1 0 -6 -7 -13 -15
-17 -23 -9 -18 -44 10 -62 22 -15 26 -14 57 3 54 30 59 44 24 63 -20 10 -22
15 -13 26 7 7 18 20 24 28 8 10 12 42 10 93 -2 75 -1 77 24 86 35 13 168 -46
166 -73 -1 -22 44 -79 64 -79 12 -1 15 -8 12 -26 -7 -32 63 -111 83 -94 7 6
17 8 23 5 14 -9 61 15 61 30 0 25 -23 64 -38 64 -9 0 -12 6 -8 16 9 23 -16 63
-78 124 -53 52 -72 86 -42 74 8 -3 21 4 29 16 9 12 20 19 26 16 15 -9 62 58
72 104 14 60 -3 116 -47 162 -56 57 -135 70 -347 57z m243 -59 c13 -8 13 -10
-2 -10 -9 0 -20 5 -23 10 -8 13 5 13 25 0z m70 -35 c0 -22 -18 -27 -42 -11
l-22 15 25 9 c27 11 39 7 39 -13z m-70 -43 c17 -18 20 -30 14 -72 -5 -36 -12
-51 -25 -55 -11 -4 -17 -10 -14 -15 3 -5 -7 -10 -22 -12 -26 -4 -26 -5 -8 -13
20 -9 44 -34 45 -47 0 -15 -43 -8 -57 10 -13 16 -14 15 -10 -5 6 -29 -20 -39
-29 -11 -4 14 -1 24 10 30 34 19 13 28 -69 28 -107 0 -104 -5 -96 158 1 26 5
32 24 32 12 0 28 4 35 8 7 5 51 3 97 -3 65 -8 90 -16 105 -33z m-13 42 c-3 -3
-12 -4 -19 -1 -8 3 -5 6 6 6 11 1 17 -2 13 -5z m-304 -54 c-3 -11 -9 -20 -14
-20 -10 0 -12 24 -2 33 13 13 21 7 16 -13z m447 -94 c0 -2 -7 -7 -16 -10 -8
-3 -12 -2 -9 4 6 10 25 14 25 6z m-478 -48 c-7 -7 -12 -8 -12 -2 0 14 12 26
19 19 2 -3 -1 -11 -7 -17z m58 -164 c0 -8 -4 -12 -10 -9 -5 3 -10 10 -10 16 0
5 5 9 10 9 6 0 10 -7 10 -16z m-10 -192 c0 -4 -9 -8 -21 -9 -17 -2 -18 1 -9
12 12 14 30 12 30 -3z m40 -12 c0 -5 -4 -10 -10 -10 -5 0 -10 5 -10 10 0 6 5
10 10 10 6 0 10 -4 10 -10z"/>
<path d="M1605 933 c-16 -3 -32 -8 -35 -12 -9 -14 -78 -22 -85 -11 -3 5 -37
10 -76 10 -56 0 -73 -4 -89 -20 -24 -24 -25 -39 -6 -66 12 -16 31 -20 113 -24
l98 -5 2 -45 c1 -25 8 -112 14 -195 6 -82 11 -179 11 -214 0 -54 3 -67 23 -87
24 -24 49 -30 79 -18 23 9 20 23 -4 17 -11 -3 -20 0 -20 6 0 6 13 11 30 11 28
0 29 2 28 45 0 39 -4 45 -22 46 -21 0 -21 1 -1 10 19 9 20 16 13 152 -4 78 -9
174 -12 214 l-4 71 34 6 c18 4 37 13 41 21 5 9 17 12 31 9 12 -4 19 -10 16
-15 -3 -5 8 -9 23 -9 56 0 95 50 68 87 -11 15 -30 18 -127 19 -62 1 -126 0
-143 -3z m65 -16 c0 -8 -9 -22 -19 -31 -24 -22 -36 1 -13 27 18 20 32 22 32 4z
m-80 -31 c0 -11 -19 -15 -25 -6 -3 5 1 10 9 10 9 0 16 -2 16 -4z m230 -6 c0
-5 -7 -10 -16 -10 -8 0 -12 5 -9 10 3 6 10 10 16 10 5 0 9 -4 9 -10z m-341
-41 c-22 -14 -33 -10 -19 6 7 8 17 12 22 9 6 -4 5 -10 -3 -15z m146 -66 c0 -1
-11 0 -23 4 -14 3 -22 13 -22 26 0 19 1 19 23 -4 13 -13 23 -25 22 -26z m-16
-32 c9 -6 10 -11 2 -15 -13 -8 -31 1 -31 15 0 11 11 11 29 0z m15 -87 c9 -3
16 -10 16 -15 0 -14 -26 -10 -40 6 -13 16 -3 20 24 9z m-19 -174 c3 -5 -1 -10
-9 -10 -9 0 -16 5 -16 10 0 6 4 10 9 10 6 0 13 -4 16 -10z m42 -46 c-3 -3 -12
-4 -19 -1 -8 3 -5 6 6 6 11 1 17 -2 13 -5z m-37 -34 c-19 -13 -30 -13 -30 0 0
6 10 10 23 10 18 0 19 -2 7 -10z"/>
<path d="M804 869 c-23 -26 -25 -116 -7 -422 12 -213 19 -240 68 -249 23 -5
161 3 343 18 72 6 97 24 87 63 -4 14 -11 30 -16 36 -6 6 -74 9 -173 7 l-164
-3 -7 160 c-4 89 -11 161 -15 161 -5 0 -6 44 -3 98 5 118 -5 146 -58 150 -26
2 -40 -3 -55 -19z"/>
<path d="M649 858 c8 -23 51 -39 51 -20 0 26 -14 42 -36 42 -20 0 -22 -3 -15
-22z"/>
<path d="M585 860 c-3 -5 -1 -10 4 -10 6 0 11 5 11 10 0 6 -2 10 -4 10 -3 0
-8 -4 -11 -10z"/>
<path d="M154 835 c-14 -21 -14 -28 -1 -53 12 -25 12 -30 -1 -38 -12 -8 -13
-14 -3 -32 9 -16 9 -26 0 -40 -22 -35 -4 -54 45 -51 24 2 42 1 39 -3 -2 -5
-22 -8 -44 -8 -38 0 -39 -1 -39 -35 0 -19 3 -34 8 -34 20 3 32 -2 32 -16 0
-18 -12 -19 -28 -3 -9 9 -12 2 -11 -32 0 -25 4 -65 7 -89 6 -38 12 -47 44 -64
38 -19 42 -43 7 -34 -21 6 -24 -5 -10 -32 9 -15 21 -17 89 -13 55 3 82 1 87
-7 5 -10 -10 -11 -63 -6 -79 8 -97 -3 -55 -33 62 -43 150 -53 269 -31 155 28
215 131 200 345 -3 49 -6 100 -6 114 0 52 -11 94 -20 80 -5 -8 -12 -11 -16 -7
-4 4 0 15 9 25 21 23 21 32 0 48 -17 13 -17 13 0 14 9 0 17 5 17 10 0 6 -21
10 -47 10 l-46 0 23 -25 23 -24 -27 -11 c-15 -5 -34 -10 -42 -10 -21 0 -17
-137 4 -162 10 -12 11 -18 4 -18 -8 0 -12 -29 -12 -92 0 -142 -6 -165 -44
-173 l-31 -7 33 -9 c42 -13 41 -23 -2 -16 -22 3 -37 1 -40 -6 -3 -9 -5 -9 -5
1 -1 8 -20 12 -58 12 -69 0 -114 23 -133 69 -7 17 -15 31 -19 31 -3 0 -5 32
-4 72 1 39 -3 80 -8 90 -7 13 -7 23 0 32 6 7 8 34 4 64 -5 44 -9 52 -27 52
-21 1 -21 1 2 19 26 22 29 68 7 110 -24 48 -84 57 -111 16z m71 -105 c12 10
15 10 15 -3 0 -9 -4 -19 -10 -22 -12 -8 -50 12 -50 27 0 7 5 6 15 -2 12 -10
18 -10 30 0z m411 -15 c-26 -19 -42 -19 -26 0 7 8 20 15 29 15 13 -1 13 -3 -3
-15z m59 -25 c-3 -5 -11 -10 -16 -10 -6 0 -7 5 -4 10 3 6 11 10 16 10 6 0 7
-4 4 -10z m10 -170 c-3 -5 -10 -10 -16 -10 -5 0 -9 5 -9 10 0 6 7 10 16 10 8
0 12 -4 9 -10z"/>
<path d="M577 833 c-15 -14 -6 -31 23 -43 17 -7 33 -10 37 -6 3 3 2 6 -3 6 -5
0 -15 4 -23 9 -12 8 -12 12 -2 25 12 14 11 16 -6 16 -11 0 -23 -3 -26 -7z"/>
<path d="M5804 710 c-6 -6 -33 -13 -60 -16 l-49 -6 6 -95 c5 -69 11 -99 23
-111 19 -19 40 -20 305 -7 140 7 167 11 182 26 26 26 24 56 -7 75 -21 15 -40
16 -132 9 -128 -9 -224 -7 -236 5 -5 5 -8 37 -7 70 2 58 -4 71 -25 50z m-30
-95 c-7 -18 -34 -28 -34 -12 0 17 21 38 31 31 5 -2 6 -11 3 -19z m76 -84 c0
-6 -4 -13 -10 -16 -5 -3 -10 1 -10 9 0 9 5 16 10 16 6 0 10 -4 10 -9z m270
-27 c0 -8 -4 -12 -10 -9 -5 3 -10 10 -10 16 0 5 5 9 10 9 6 0 10 -7 10 -16z"/>
<path d="M3949 610 c-9 -5 -34 -11 -56 -12 l-41 -3 -1 -68 c-2 -94 13 -145 45
-153 13 -4 68 -4 122 -1 53 4 142 6 198 6 111 0 151 12 160 48 9 36 -2 51 -47
63 -33 9 -63 9 -133 -2 -50 -8 -118 -11 -151 -8 l-60 5 -1 40 c-2 102 -3 104
-35 85z m-23 -86 c-3 -9 -6 -18 -6 -20 0 -2 -7 -4 -15 -4 -18 0 -19 12 -3 28
17 17 31 15 24 -4z m74 -93 c0 -6 -4 -13 -10 -16 -5 -3 -10 1 -10 9 0 9 5 16
10 16 6 0 10 -4 10 -9z m270 -27 c0 -8 -4 -12 -10 -9 -5 3 -10 10 -10 16 0 5
5 9 10 9 6 0 10 -7 10 -16z"/>
<path d="M7535 500 c-66 -3 -129 -11 -141 -17 -13 -8 -24 -9 -30 -3 -6 6 -80
6 -199 0 -105 -5 -248 -12 -320 -15 -175 -7 -340 -26 -323 -36 10 -7 9 -9 -4
-9 -9 0 -18 5 -20 12 -5 15 -516 -5 -547 -21 -15 -9 -26 -8 -39 0 -14 9 -31 9
-63 1 -24 -5 -75 -8 -114 -5 -38 2 -157 -4 -262 -13 -170 -15 -191 -19 -180
-33 10 -12 9 -13 -1 -7 -7 4 -19 2 -27 -4 -18 -15 -20 -70 -2 -70 31 0 602 30
682 36 50 4 95 11 102 16 7 6 19 5 32 -1 32 -17 45 -13 59 19 12 26 44 44 41
23 -1 -5 -1 -17 0 -27 1 -18 8 -18 153 -12 98 5 156 12 160 19 6 9 8 9 8 0 0
-15 36 -18 44 -4 3 5 27 7 53 4 74 -7 494 18 535 32 21 7 40 9 46 3 9 -9 483
10 493 21 8 8 -1 101 -10 99 -3 -1 -60 -4 -126 -8z m-1095 -90 c0 -5 -5 -10
-11 -10 -5 0 -7 5 -4 10 3 6 8 10 11 10 2 0 4 -4 4 -10z m-650 -36 c0 -8 -4
-12 -10 -9 -5 3 -10 10 -10 16 0 5 5 9 10 9 6 0 10 -7 10 -16z m265 6 c-3 -5
-13 -10 -21 -10 -8 0 -12 5 -9 10 3 6 13 10 21 10 8 0 12 -4 9 -10z m415 -20
c0 -5 -4 -10 -9 -10 -6 0 -13 5 -16 10 -3 6 1 10 9 10 9 0 16 -4 16 -10z
m-610 -20 c0 -5 -7 -10 -16 -10 -8 0 -12 5 -9 10 3 6 10 10 16 10 5 0 9 -4 9
-10z m37 -6 c-3 -3 -12 -4 -19 -1 -8 3 -5 6 6 6 11 1 17 -2 13 -5z m-577 -19
c-7 -8 -16 -15 -21 -15 -5 0 -9 7 -9 15 0 9 9 15 21 15 18 0 19 -2 9 -15z"/>
<path d="M4955 368 c-82 -4 -199 -12 -260 -17 -60 -6 -189 -13 -285 -16 -216
-6 -301 -14 -318 -28 -10 -8 -16 -7 -22 2 -5 9 -21 12 -51 7 -24 -3 -56 -7
-70 -9 -14 -2 -31 -7 -38 -12 -8 -4 -16 -2 -21 5 -6 10 -45 11 -196 1 -104 -6
-421 -22 -704 -36 -283 -14 -584 -32 -668 -39 -167 -15 -186 -23 -194 -77 l-5
-29 71 0 c129 0 621 32 624 41 4 10 36 12 45 3 8 -8 192 -5 362 6 72 5 317 18
545 30 348 19 418 25 434 39 11 9 16 10 12 3 -5 -9 4 -12 33 -12 23 0 40 3 39
7 -4 13 23 55 30 49 3 -4 7 -16 9 -28 2 -12 6 -24 8 -27 3 -2 121 3 263 12
141 10 324 20 406 24 82 3 167 11 189 18 40 12 40 12 20 32 -18 18 -18 22 -5
42 l15 22 -59 -3 c-32 -1 -126 -6 -209 -10z m-280 -48 c-3 -5 -11 -10 -16 -10
-6 0 -7 5 -4 10 3 6 11 10 16 10 6 0 7 -4 4 -10z m256 -23 c-13 -13 -26 -3
-16 12 3 6 11 8 17 5 6 -4 6 -10 -1 -17z m-987 -12 c-4 -8 -10 -12 -15 -9 -11
6 -2 24 11 24 5 0 7 -7 4 -15z m271 5 c3 -5 2 -10 -4 -10 -5 0 -18 -3 -28 -7
-16 -6 -16 -5 -4 10 15 19 27 22 36 7z m526 -21 c-16 -6 -28 -6 -35 1 -7 7 1
10 25 9 32 0 33 -1 10 -10z m-1061 -9 c0 -5 -4 -10 -10 -10 -5 0 -10 5 -10 10
0 6 5 10 10 10 6 0 10 -4 10 -10z m325 -20 c-3 -5 -10 -10 -16 -10 -5 0 -9 5
-9 10 0 6 7 10 16 10 8 0 12 -4 9 -10z m45 0 c0 -5 -7 -10 -16 -10 -8 0 -12 5
-9 10 3 6 10 10 16 10 5 0 9 -4 9 -10z m-1855 -90 c-3 -5 -13 -10 -21 -10 -8
0 -14 5 -14 10 0 6 9 10 21 10 11 0 17 -4 14 -10z"/>
<path d="M2058 215 c-2 -3 -69 -7 -149 -10 -146 -5 -353 -25 -331 -33 19 -6
14 -21 -5 -17 -10 1 -17 8 -15 14 3 15 -67 14 -373 -4 -137 -7 -314 -17 -392
-21 -130 -6 -143 -8 -143 -25 0 -11 7 -19 15 -19 8 0 15 -9 15 -20 0 -21 -16
-25 -58 -14 -22 6 -22 8 -6 25 16 18 16 19 -2 19 -16 0 -17 2 -4 10 20 13 -81
13 -275 -1 -82 -6 -165 -10 -184 -9 -19 0 -47 -2 -63 -5 -26 -6 -28 -10 -28
-56 0 -55 -1 -54 83 -43 26 4 44 11 41 15 -3 5 -1 9 5 9 5 0 11 -5 13 -11 3
-8 53 -8 177 -1 140 9 177 14 192 28 11 9 22 14 26 10 4 -4 1 -11 -7 -16 -20
-13 -50 -14 482 15 326 18 465 29 470 38 6 9 8 9 8 0 0 -13 41 -18 52 -8 3 3
95 8 204 10 113 3 214 11 234 17 19 7 40 13 45 13 12 1 7 27 -7 36 -6 4 -4 16
7 33 17 25 17 26 -2 26 -11 0 -22 -2 -25 -5z m-25 -65 c3 -11 1 -20 -4 -20 -5
0 -9 9 -9 20 0 11 2 20 4 20 2 0 6 -9 9 -20z m-538 0 c-3 -5 -12 -10 -18 -10
-7 0 -6 4 3 10 19 12 23 12 15 0z m27 -52 c-9 -9 -15 -9 -24 0 -9 9 -7 12 12
12 19 0 21 -3 12 -12z"/>
</g>
</svg>
